<?xml version="1.0" standalone="no"?>
<!DOCTYPE svg PUBLIC "-//W3C//DTD SVG 1.1//EN" "http://www.w3.org/Graphics/SVG/1.1/DTD/svg11.dtd" >
<svg xmlns="http://www.w3.org/2000/svg">
<metadata></metadata>
<defs>
<font id="maven_pro_light300" horiz-adv-x="1097" >
<font-face units-per-em="2048" ascent="1638" descent="-410" />
<missing-glyph horiz-adv-x="636" />
<glyph horiz-adv-x="2048" />
<glyph horiz-adv-x="2048" />
<glyph unicode="&#xd;" horiz-adv-x="681" />
<glyph unicode=" "  horiz-adv-x="636" />
<glyph unicode="&#x09;" horiz-adv-x="636" />
<glyph unicode="&#xa0;" horiz-adv-x="636" />
<glyph unicode="!" horiz-adv-x="632" d="M256 0v162h113v-162h-113zM262 1317h100l-10 -979h-82z" />
<glyph unicode="&#x22;" horiz-adv-x="702" d="M156 1335h118l-24 -411h-68q-16 274 -26 411zM424 1335h119q-10 -137 -27 -411h-67z" />
<glyph unicode="#" horiz-adv-x="1183" d="M137 281v86h189l59 350h-188v84h204l45 260h86l-45 -260h322l47 260h86l-47 -260h162v-84h-176l-62 -350h176v-86h-190l-41 -244h-86l41 244h-322l-43 -244h-86l43 244h-174zM412 367h321l62 350h-324z" />
<glyph unicode="$" horiz-adv-x="1132" d="M135 70v110q168 -100 395 -100v559q-76 20 -116.5 33.5t-101 42t-91.5 60.5t-55.5 85t-24.5 121q0 145 97.5 242.5t291.5 109.5v193h66v-191q170 -6 330 -78v-104q-172 82 -330 84v-514q72 -20 118 -36.5t105.5 -48.5t93 -70t58 -98t24.5 -136q0 -147 -101 -241.5 t-298 -106.5v-215h-66v213q-223 0 -395 86zM246 981q0 -53 21.5 -92t66.5 -66.5t87 -44t109 -35.5v490q-139 -10 -211.5 -76.5t-72.5 -175.5zM596 84q139 10 218 74.5t79 175.5q0 63 -22.5 111.5t-69.5 81t-91 51t-114 40.5v-534z" />
<glyph unicode="%" horiz-adv-x="1648" d="M137 956q0 353 279 353q276 0 276 -353q0 -354 -276 -354q-279 0 -279 354zM215 956.5q0 -165.5 55.5 -222t145.5 -56.5q88 0 143 56.5t55 222t-55 222t-143 56.5q-90 0 -145.5 -56.5t-55.5 -222zM358 0l842 1317h90l-839 -1317h-93zM956 360.5q0 354.5 279 354.5 q276 0 276 -354.5t-276 -354.5q-279 0 -279 354.5zM1034 360.5q0 -165.5 55.5 -223t145.5 -57.5t144.5 57.5t54.5 223t-54.5 222t-144.5 56.5t-145.5 -56.5t-55.5 -222z" />
<glyph unicode="&#x26;" horiz-adv-x="1234" d="M115 367q0 236 282 393q-133 166 -133 303q0 121 76 195.5t199 74.5q131 0 201.5 -78.5t70.5 -195.5q0 -102 -62.5 -173t-195.5 -151l350 -407q61 100 94 213h101q-35 -148 -129 -293l209 -248h-131l-142 164q-162 -182 -389 -182q-188 0 -294.5 114.5t-106.5 270.5z M215 356q0 -102 80 -188t227 -86q190 0 324 154l-385 452q-137 -76 -191.5 -156.5t-54.5 -175.5zM362 1061q0 -100 130 -254q123 66 172 123t49 119q0 84 -44 136t-128 52q-82 0 -130.5 -52t-48.5 -124z" />
<glyph unicode="'" horiz-adv-x="477" d="M174 1335h117l-25 -411h-67z" />
<glyph unicode="(" horiz-adv-x="622" d="M168 590q0 456 223 864h109q-45 -78 -90 -179t-93.5 -297t-48.5 -388q0 -190 48.5 -385t93.5 -297.5t90 -177.5h-109q-223 408 -223 860z" />
<glyph unicode=")" horiz-adv-x="624" d="M123 -270q231 410 231 862t-231 862h108q223 -408 223.5 -862.5t-223.5 -861.5h-108z" />
<glyph unicode="*" horiz-adv-x="784" d="M154 1083l190 95l-190 92l39 65l174 -114l-15 204h78l-12 -204l172 114l39 -65l-189 -92l189 -95l-39 -67l-172 117l12 -205h-78l15 205l-174 -117z" />
<glyph unicode="+" horiz-adv-x="1062" d="M172 541v86h315v313h84v-313h314v-86h-314v-314h-84v314h-315z" />
<glyph unicode="," horiz-adv-x="546" d="M135 -209l133 377h115l-147 -377h-101z" />
<glyph unicode="-" horiz-adv-x="948" d="M147 532v99h646v-99h-646z" />
<glyph unicode="." horiz-adv-x="557" d="M227 0v162h113v-162h-113z" />
<glyph unicode="/" horiz-adv-x="778" d="M-31 -250l752 1747h94l-754 -1747h-92z" />
<glyph unicode="0" horiz-adv-x="1259" d="M129 655q0 678 504 678q502 0 502 -678t-502 -678q-504 0 -504 678zM231 655.5q0 -327.5 105.5 -455.5t296 -128t296 128t105.5 455q0 170 -29.5 288t-87 180.5t-126 89t-158.5 26.5q-190 0 -296 -128t-106 -455.5z" />
<glyph unicode="1" horiz-adv-x="839" d="M195 1040v121l256 156h112v-1317h-100v1210z" />
<glyph unicode="2" horiz-adv-x="1126" d="M150 0v86q113 86 218 179t222 217t187.5 252t70.5 235q0 109 -79 186.5t-255 77.5q-186 0 -352 -103v111q166 94 356 94q217 0 324.5 -108.5t107.5 -257.5q0 -359 -633 -869h662v-100h-829z" />
<glyph unicode="3" d="M139 61v105q145 -82 332 -82q188 0 287.5 72.5t99.5 208t-100.5 209t-292.5 75.5h-150v96h152q162 2 246 65.5t84 180.5q0 119 -87 181.5t-253 62.5q-158 0 -289 -68v105q135 66 299 65q217 0 324.5 -98t107.5 -248q0 -127 -73.5 -201.5t-145.5 -82.5q84 -8 182.5 -100.5 t98.5 -244.5q0 -166 -119 -273t-359 -107q-190 0 -344 79z" />
<glyph unicode="4" horiz-adv-x="1142" d="M82 391v107l649 819h113v-832h190v-94h-190v-391h-101v391h-661zM195 485h548v684z" />
<glyph unicode="5" horiz-adv-x="1140" d="M139 61v105q55 -33 154.5 -59.5t210.5 -26.5q186 0 280.5 85t94.5 241q0 299 -344 299q-57 0 -113.5 -8.5t-84.5 -16.5t-67 -23l-39 -14l-61 62l74 612h653v-100h-565q-37 -303 -53 -455q129 43 260 43q84 0 155.5 -18.5t139 -60.5t106.5 -126t39 -201q0 -123 -43 -210 t-118 -129t-148.5 -59t-159.5 -17q-225 0 -371 77z" />
<glyph unicode="6" horiz-adv-x="1144" d="M129 600q0 188 45 329.5t109.5 216.5t151.5 121t151.5 57t132.5 11q98 0 176 -22v-92q-106 18 -166 18q-51 0 -101 -7t-121 -40t-124 -86t-95 -155.5t-52 -241.5q137 110 342 110q201 0 319.5 -109.5t118.5 -295.5q0 -176 -108.5 -303t-329.5 -127q-449 0 -449 616z M229 598q1 -520 349 -520q82 0 144 24.5t97 60.5t57.5 84t29.5 88t7 79q0 150 -88 230.5t-247 80.5q-211 0 -349 -127z" />
<glyph unicode="7" horiz-adv-x="1126" d="M137 1217v100h883v-94l-524 -1223h-113l528 1217h-774z" />
<glyph unicode="8" horiz-adv-x="1134" d="M125 379q0 154 95 242t177 94q-68 4 -144.5 80.5t-76.5 208.5q0 143 99.5 238t298 95t298 -95t99.5 -238q0 -133 -74.5 -208t-144.5 -81q82 -4 176 -93.5t94 -242.5q0 -166 -112.5 -281.5t-336 -115.5t-336 115.5t-112.5 281.5zM225 379q0 -49 15.5 -96t51.5 -96.5 t108.5 -79t173 -29.5t173 29.5t107.5 79t50.5 96.5t15.5 96q0 135 -89.5 209t-257.5 74q-166 0 -257 -74t-91 -209zM276 1004q0 -117 78 -183.5t219 -66.5q139 0 217 66.5t78 183.5q0 123 -83 178t-212 55q-131 0 -214 -55t-83 -178z" />
<glyph unicode="9" horiz-adv-x="1157" d="M119 903q0 176 108.5 304t329.5 128q449 0 449 -620q0 -137 -24 -249t-61.5 -185.5t-91 -130t-105.5 -87t-112.5 -50t-105.5 -24.5t-90 -5q-88 0 -176 18v94q82 -18 166 -18q51 0 101 7t120.5 39t123 85t95.5 156.5t51 240.5q-131 -108 -340 -108q-203 0 -320.5 108.5 t-117.5 296.5zM221 903q0 -150 88 -230.5t248 -80.5q215 0 348 127q0 520 -348 520q-82 0 -144.5 -24.5t-97 -60.5t-57 -84t-30 -88t-7.5 -79z" />
<glyph unicode=":" horiz-adv-x="643" d="M268 66v161h113v-161h-113zM268 762v164h113v-164h-113z" />
<glyph unicode=";" horiz-adv-x="690" d="M158 -209l133 377h115l-148 -377h-100zM289 762v164h112v-164h-112z" />
<glyph unicode="&#x3c;" horiz-adv-x="1228" d="M205 494v96l809 364v-112l-690 -301l690 -301v-113z" />
<glyph unicode="=" horiz-adv-x="1183" d="M213 358v99h754v-99h-754zM213 709v96h754v-96h-754z" />
<glyph unicode="&#x3e;" horiz-adv-x="1214" d="M221 127v113l688 301l-688 301v112l807 -364v-96z" />
<glyph unicode="?" horiz-adv-x="903" d="M137 1157v109q121 67 262 67q57 0 115.5 -13t125.5 -46t107.5 -105.5t40.5 -175.5q0 -88 -31.5 -149.5t-76.5 -100t-89 -77.5t-76 -104.5t-32 -158.5v-65h-102v74q0 102 31.5 177t75.5 117t89.5 78.5t77 88t31.5 120.5q0 121 -82 180.5t-205 59.5q-147 0 -262 -76zM375 0 v162h112v-162h-112z" />
<glyph unicode="@" horiz-adv-x="1869" d="M158 356q0 244 132 449t332.5 316.5t413.5 111.5q125 0 245 -43t220.5 -124t161.5 -215t61 -298q0 -205 -91 -344t-234 -139q-90 0 -142.5 45t-68.5 108q-27 -68 -105.5 -110.5t-189.5 -42.5q-121 0 -204 56t-83 163q0 119 104.5 197.5t311.5 78.5q88 0 180 -16 q0 12 2 34.5t2 32.5q0 86 -45 132.5t-178 46.5q-127 0 -229 -37l10 80q115 37 227 36q297 0 297 -262q0 -51 -17.5 -166.5t-17.5 -166.5q0 -152 133 -152q119 0 202 115.5t83 304.5q0 291 -187.5 462t-447.5 171q-209 0 -397 -107.5t-307 -300t-119 -420.5 q0 -152 56.5 -273.5t150.5 -195t206.5 -111.5t233.5 -38q215 0 391 94l-14 -64q-166 -82 -387 -81q-180 0 -336 75.5t-256 232t-100 365.5zM688 293q0 -80 63.5 -114t145.5 -34q225 0 266 154q8 33 29 176q-72 14 -162 14q-154 0 -248 -47t-94 -149z" />
<glyph unicode="A" horiz-adv-x="1282" d="M51 0l537 1317h100l535 -1317h-109l-168 418h-618l-166 -418h-111zM367 514h542l-272 680z" />
<glyph unicode="B" horiz-adv-x="1200" d="M160 0v1317h432q225 0 325.5 -94.5t100.5 -239.5q0 -129 -63 -204t-126 -85q31 -2 70 -20.5t86 -53t78 -104.5t31 -158q0 -176 -120 -267t-337 -91h-477zM260 94h385q346 0 346 273q0 264 -350 264h-381v-537zM260 725h354q304 0 304 246q0 250 -316 250h-342v-496z" />
<glyph unicode="C" horiz-adv-x="1212" d="M125 657.5q0 348.5 162 514t446 165.5q203 0 395 -75v-97q-199 76 -383 76q-520 0 -520 -584q0 -579 518 -579h2q197 0 383 72v-97q-196 -71 -388 -71h-5q-287 0 -448.5 163.5t-161.5 512z" />
<glyph unicode="D" horiz-adv-x="1296" d="M158 0v1317h401q623 0 623 -660q0 -657 -623 -657h-401zM260 94h291q270 0 399 137.5t129 426t-128 427t-400 138.5h-291v-1129z" />
<glyph unicode="E" horiz-adv-x="1083" d="M160 0v1317h815v-94h-715v-510h631v-99h-631v-518h715v-96h-815z" />
<glyph unicode="F" horiz-adv-x="1036" d="M160 0v1317h792v-94h-692v-512h608v-99h-608v-612h-100z" />
<glyph unicode="G" horiz-adv-x="1316" d="M123 657q0 346 163 512t447 166q203 0 404 -78v-98q-199 78 -392 78q-520 0 -520 -580q0 -307 135.5 -443t384.5 -136q168 0 330 55v461h-368v98h471v-616q-199 -92 -443 -92q-287 0 -449.5 162.5t-162.5 510.5z" />
<glyph unicode="H" horiz-adv-x="1288" d="M160 0v1317h100v-608h760v608h102v-1317h-102v610h-760v-610h-100z" />
<glyph unicode="I" horiz-adv-x="432" d="M160 0v1317h100v-1317h-100z" />
<glyph unicode="J" horiz-adv-x="847" d="M66 47v105q111 -70 243 -70q139 0 202.5 71.5t63.5 227.5v936h103v-944q0 -211 -100.5 -301t-255.5 -90q-139 0 -256 65z" />
<glyph unicode="K" horiz-adv-x="1142" d="M160 2v1315h100v-731l662 731h135l-561 -615l610 -702h-133l-543 631l-170 -185v-444h-100z" />
<glyph unicode="L" horiz-adv-x="1005" d="M160 0v1317h100v-1219h690v-98h-790z" />
<glyph unicode="M" horiz-adv-x="1521" d="M160 0v1317h108l490 -713l489 713h111v-1317h-103v1149l-497 -713l-498 713v-1149h-100z" />
<glyph unicode="N" horiz-adv-x="1370" d="M158 0v1317h114l830 -1167v1167h102v-1317h-112l-832 1165v-1165h-102z" />
<glyph unicode="O" horiz-adv-x="1472" d="M125 659.5q0 677.5 606 677.5q608 0 608 -677.5t-608 -677.5q-606 0 -606 677.5zM225 659q0 -297 122 -439t384 -142t384 142t122 439q0 295 -122 438.5t-384 143.5t-384 -143.5t-122 -438.5z" />
<glyph unicode="P" horiz-adv-x="1128" d="M158 2v1315h442q215 0 331 -105.5t116 -293.5q0 -193 -118 -296.5t-331 -103.5h-340v-516h-100zM258 614h328q360 0 360 304q0 301 -358 301h-330v-605z" />
<glyph unicode="Q" horiz-adv-x="1466" d="M125 659q0 678 606 678q608 0 608 -678q0 -645 -553 -675q45 -215 301 -226v-92q-109 2 -187.5 33t-121.5 82t-64.5 99t-29.5 104q-559 27 -559 675zM225 659q0 -297 122 -439t384 -142t384 142t122 439q0 295 -122 438.5t-384 143.5t-384 -143.5t-122 -438.5z" />
<glyph unicode="R" horiz-adv-x="1191" d="M158 0v1317h467q209 0 322.5 -98.5t113.5 -280.5q0 -96 -33 -170t-86 -115t-101 -61.5t-96 -28.5l367 -563h-119l-354 547h-379v-547h-102zM260 643h358q340 0 340 289t-340 289h-358v-578z" />
<glyph unicode="S" horiz-adv-x="1112" d="M125 72v108q172 -98 393 -98q164 0 264.5 64.5t100.5 189.5q0 115 -78 181.5t-187.5 97t-220 62.5t-188.5 105.5t-78 198.5q0 152 107.5 254t326.5 102q182 0 350 -80v-104q-160 84 -340 84q-166 0 -252.5 -67.5t-86.5 -188.5q0 -70 40.5 -117t107.5 -73.5t147.5 -49 t160.5 -50t146.5 -67.5t107.5 -113t41 -175q0 -160 -118.5 -257t-342.5 -97q-217 0 -401 90z" />
<glyph unicode="T" horiz-adv-x="1132" d="M35 1219v98h1059v-98h-478v-1219h-102v1219h-479z" />
<glyph unicode="U" horiz-adv-x="1353" d="M150 518v799h102v-803q0 -440 418 -440q420 0 420 440v803h102v-799q0 -260 -135 -397t-387 -137t-386 137t-134 397z" />
<glyph unicode="V" horiz-adv-x="1228" d="M39 1317h108l465 -1172l463 1172h109l-522 -1317h-101z" />
<glyph unicode="W" horiz-adv-x="1865" d="M39 1317h108l367 -1174l371 1174h100l369 -1174l366 1174h109l-424 -1317h-100l-371 1155l-369 -1155h-102z" />
<glyph unicode="X" horiz-adv-x="1169" d="M47 0l473 668l-459 649h121l400 -563l401 563h123l-461 -649l471 -668h-121l-413 580l-412 -580h-123z" />
<glyph unicode="Y" horiz-adv-x="1161" d="M37 1317h123l420 -639l419 639h121l-489 -737v-580h-103v580z" />
<glyph unicode="Z" horiz-adv-x="1202" d="M131 0v86l803 1137h-780v94h911v-86l-805 -1139h811v-92h-940z" />
<glyph unicode="[" horiz-adv-x="694" d="M203 -274v1691h346v-96h-246v-1499h246v-96h-346z" />
<glyph unicode="\" horiz-adv-x="731" d="M-61 1497h92l751 -1747h-92z" />
<glyph unicode="]" horiz-adv-x="712" d="M156 -178h241v1499h-241v96h344v-1691h-344v96z" />
<glyph unicode="^" horiz-adv-x="1011" d="M213 926l231 452h78l234 -452h-86l-185 370l-188 -370h-84z" />
<glyph unicode="_" horiz-adv-x="1028" d="M0 -49h1026v-62h-1026v62z" />
<glyph unicode="`" horiz-adv-x="473" d="M98 1448h115l160 -281h-78z" />
<glyph unicode="a" horiz-adv-x="1067" d="M117 295q0 88 42 151.5t97 95t131 50t119 21.5t86 3q129 0 237 -20q0 313 -327 313q-135 0 -283 -45v99q142 47 289 47q424 0 424 -416v-303q0 -78 -31 -135.5t-74 -89t-102 -51t-104.5 -24.5t-90.5 -5q-59 0 -120.5 11t-132 41t-115.5 96.5t-45 160.5zM217 295 q0 -66 31 -111t81 -66.5t99 -30.5t102.5 -9t99.5 8t95 29.5t77.5 67t28.5 108.5v213q-119 18 -251 18q-43 0 -86 -4t-95.5 -18.5t-90.5 -38t-64.5 -66.5t-26.5 -100z" />
<glyph unicode="b" horiz-adv-x="1112" d="M154 293v1085h102v-415q136 49 281 49q70 0 130 -12.5t121.5 -46t105.5 -89t71.5 -146.5t27.5 -212q0 -131 -30.5 -228.5t-75.5 -152.5t-108.5 -88t-117 -43t-110.5 -10q-102 0 -180 25.5t-118 61t-63.5 83t-29.5 79t-6 60.5zM256 289q0 -88 70.5 -149.5t224.5 -61.5 q63 0 114.5 14t106.5 55t87 132.5t32 226.5q0 221 -90 315t-264 94q-150 0 -281 -55v-571z" />
<glyph unicode="c" horiz-adv-x="946" d="M121 498q0 152 41 258t113.5 159.5t147.5 75t163 21.5q139 0 288 -54v-98q-143 53 -278 53q-180 0 -277.5 -96t-97.5 -319.5t97.5 -319.5t277.5 -96q143 0 278 53v-98q-141 -53 -288 -53q-70 0 -130.5 12t-124 46t-108.5 89t-73.5 149.5t-28.5 217.5z" />
<glyph unicode="d" horiz-adv-x="1118" d="M127 506q0 150 40 253t109.5 155.5t143.5 74t162 21.5q152 0 282 -47v413h101v-1083q0 -31 -6.5 -62.5t-30 -79t-63.5 -82t-117.5 -60t-180.5 -25.5q-57 0 -110.5 10t-115.5 43t-107.5 88t-76 152.5t-30.5 228.5zM229 506q0 -109 22.5 -189.5t55.5 -126t81 -72t89 -33.5 t90 -7q154 0 225.5 61.5t71.5 149.5v571q-133 55 -282 55q-172 0 -262.5 -95t-90.5 -314z" />
<glyph unicode="e" d="M125 477q0 57 7 116.5t36 138.5t74 137.5t128.5 99.5t196.5 41q86 0 157 -26t114 -64.5t75.5 -94t47 -101.5t23.5 -101.5t10 -81t1 -49.5v-22.5v-15.5t-1 -8.5t-1 -5.5v-2h-764q2 -51 19 -88q39 -266 356 -266q197 0 324 70v-105q-135 -63 -332 -63q-92 0 -170 22.5 t-148.5 73.5t-111.5 152.5t-41 242.5zM229 528h662q0 27 -3 61t-21.5 95t-51.5 108.5t-98.5 84t-155.5 36.5q-158 0 -240.5 -100t-91.5 -285z" />
<glyph unicode="f" horiz-adv-x="647" d="M82 903v90h158v90q0 92 24.5 158t56 97.5t80 49t74 19.5t60.5 2q55 0 108 -14v-90q-45 10 -92 10q-43 0 -68.5 -4t-63.5 -23.5t-57.5 -71t-19.5 -133.5v-90h295v-90h-295v-903h-102v903h-158z" />
<glyph unicode="g" horiz-adv-x="1069" d="M117 504q0 127 29.5 222t73.5 148.5t105.5 85t113 42t108.5 10.5q102 0 178 -25.5t115 -59.5t62.5 -80t28.5 -77t5 -59v-764q0 -338 -430 -338q-147 0 -275 33v96q131 -33 263 -33q201 0 271.5 65.5t70.5 172.5v125q-137 -51 -277 -52q-442 0 -442 488zM219 504 q0 -123 28.5 -206t82 -121t106.5 -52t123 -14q142 0 277 59v545q0 84 -69 143.5t-220 59.5q-61 0 -110.5 -14.5t-102.5 -53.5t-84 -127t-31 -219z" />
<glyph unicode="h" horiz-adv-x="1124" d="M168 0v1376h102v-444q184 80 342 80q180 0 277.5 -102.5t97.5 -301.5v-608h-100v608q0 301 -287 301q-158 0 -330 -75v-834h-102z" />
<glyph unicode="i" horiz-adv-x="450" d="M168 1178v151h113v-151h-113zM174 0v993h100v-993h-100z" />
<glyph unicode="j" horiz-adv-x="462" d="M-6 -297q109 0 161 47t52 164v1079h100v-1042q0 -106 -25.5 -177t-73.5 -106t-97.5 -47t-116.5 -12v94zM201 1178v151h112v-151h-112z" />
<glyph unicode="k" horiz-adv-x="972" d="M166 0v1376h102v-913l496 530h137l-424 -450l479 -543h-135l-411 471l-142 -152v-319h-102z" />
<glyph unicode="l" horiz-adv-x="471" d="M184 0v1376h103v-1376h-103z" />
<glyph unicode="m" horiz-adv-x="1771" d="M168 0v907q203 104 403 105q180 0 273 -103q194 103 393 103q176 0 272.5 -93.5t96.5 -271.5v-647h-103v647q0 262 -272 262q-160 0 -328 -78q35 -82 35 -184v-647h-102v647q0 123 -61.5 192.5t-215.5 69.5q-143 0 -289 -61v-848h-102z" />
<glyph unicode="n" horiz-adv-x="1126" d="M154 0v905q201 107 426 107q184 0 284.5 -92.5t100.5 -272.5v-647h-103v647q0 262 -293 262q-154 0 -315 -63v-846h-100z" />
<glyph unicode="o" horiz-adv-x="1144" d="M109 497.5q0 151.5 40.5 257t112.5 159t147.5 76t164 22.5t164 -22.5t147 -76t112.5 -159t41 -257t-41 -257t-112.5 -158.5t-147 -75.5t-164 -22.5t-164 22.5t-147.5 75.5t-112.5 158.5t-40.5 257zM208 498q0 -420 365 -420q174 0 269.5 98t95.5 321.5t-95 322t-270 98.5 q-365 0 -365 -420z" />
<glyph unicode="p" horiz-adv-x="1114" d="M154 -377v1079q0 31 6 63t29.5 79t63.5 82t118 60.5t180 25.5q57 0 110.5 -10.5t116 -44t107.5 -88t75.5 -153t30.5 -229.5q0 -147 -40 -251.5t-109.5 -156.5t-143 -73.5t-161.5 -21.5q-145 0 -283 49v-410h-100zM254 135q127 -55 283 -55q174 0 263 94t89 315 q0 428 -338 429q-154 0 -225.5 -61.5t-71.5 -149.5v-572z" />
<glyph unicode="q" horiz-adv-x="1116" d="M117 487q0 131 30.5 229.5t75.5 153t107.5 88t116 44t110.5 10.5q102 0 180 -25.5t118 -60.5t63.5 -82t29.5 -79t6 -63v-1079h-100v410q-137 -49 -281 -49q-88 0 -162.5 21.5t-144 73.5t-109.5 156.5t-40 251.5zM219 489q0 -221 90 -315t264 -94q156 0 281 55v572 q0 88 -71.5 149.5t-225.5 61.5q-338 -1 -338 -429z" />
<glyph unicode="r" horiz-adv-x="651" d="M152 0v915q215 92 466 95v-99q-170 -4 -366 -61v-850h-100z" />
<glyph unicode="s" horiz-adv-x="868" d="M102 55v107q150 -78 308 -78q119 0 190.5 45t71.5 129q0 82 -58.5 129t-141.5 68.5t-165 45t-140 81t-58 153.5q0 117 83.5 197t253.5 80q129 0 269 -60v-100q-127 61 -258 61q-106 0 -176 -44t-70 -134q0 -66 58.5 -103.5t141.5 -59t164.5 -48t140 -93t58.5 -173.5 q0 -123 -93 -198.5t-267 -75.5q-168 0 -312 71z" />
<glyph unicode="t" horiz-adv-x="673" d="M51 903v90h160v281h102v-281h287v-90h-287v-657q0 -166 170 -166q63 0 121 20v-96q-70 -18 -133 -18q-260 0 -260 256v661h-160z" />
<glyph unicode="u" horiz-adv-x="1142" d="M152 412v581h102v-587q0 -328 311.5 -328t311.5 328v587h102v-581q0 -205 -108.5 -315.5t-305.5 -110.5q-199 0 -306 110.5t-107 315.5z" />
<glyph unicode="v" horiz-adv-x="1009" d="M51 993h109l344 -866l344 866h108l-401 -993h-102z" />
<glyph unicode="w" horiz-adv-x="1531" d="M55 993h109l289 -848l264 848h96l268 -848l289 848h107l-344 -993h-103l-264 842l-264 -842h-101z" />
<glyph unicode="x" horiz-adv-x="1003" d="M70 0l364 502l-354 491h119l297 -413l295 413h124l-358 -493l365 -500h-121l-305 426l-303 -426h-123z" />
<glyph unicode="y" horiz-adv-x="987" d="M68 993h110l326 -860l317 860h109l-416 -1112q-102 -272 -303 -272q-47 0 -94 18v94q37 -18 84 -18q45 0 79.5 17.5t60.5 54.5t42 66.5t38.5 82.5t33.5 76z" />
<glyph unicode="z" horiz-adv-x="935" d="M100 0v90l598 811h-581v92h706v-88l-600 -815h608v-90h-731z" />
<glyph unicode="{" horiz-adv-x="686" d="M158 541v67q133 59 133 172v318q0 152 69.5 235.5t206.5 83.5v-96q-174 -4 -174 -191v-350q0 -119 -127 -207q127 -88 127 -204v-351q0 -184 174 -190v-94q-137 0 -206.5 85t-69.5 232v318q0 113 -133 172z" />
<glyph unicode="|" horiz-adv-x="714" d="M305 -252v1626h101v-1626h-101z" />
<glyph unicode="}" horiz-adv-x="681" d="M137 -172q174 6 174 190v351q0 117 129 204q-129 88 -129 207v350q0 186 -174 191v96q137 0 207 -84t70 -235v-318q0 -113 133 -172v-67q-133 -59 -133 -172v-318q0 -147 -70 -232t-207 -85v94z" />
<glyph unicode="~" horiz-adv-x="1013" d="M166 557q70 106 168 107q63 0 177 -66t175 -66q90 1 158 105q4 -57 4 -82q-68 -109 -162 -109q-63 0 -175 66t-173 66q-98 0 -168 -103z" />
<glyph unicode="&#xa1;" horiz-adv-x="618" d="M256 834v161h113v-161h-113zM262 -322l8 977h82l10 -977h-100z" />
<glyph unicode="&#xa2;" horiz-adv-x="952" d="M119 684q0 141 35.5 242.5t99 156t132.5 81t151 30.5v164h69v-162q135 -2 266 -51v-98q-135 51 -266 51v-830q135 0 266 54v-101q-131 -49 -266 -51v-170h-69v172q-418 31 -418 512zM221 684q0 -383 316 -412v824q-316 -31 -316 -412z" />
<glyph unicode="&#xa3;" horiz-adv-x="1091" d="M98 -23v103q80 35 178 39v454h-178v93h178v309q0 152 102.5 259t317.5 107q156 0 299 -75v-103q-134 80 -290 80q-178 0 -253 -76.5t-75 -187.5v-313h440v-93h-440v-456q61 -4 208.5 -34t231.5 -30q100 0 178 29v-102q-78 -29 -178 -29q-90 0 -257 33.5t-253 33.5 q-115 0 -209 -41z" />
<glyph unicode="&#xa5;" horiz-adv-x="1167" d="M45 1317h125l418 -621l418 621h124l-446 -660h287v-86h-332v-209h332v-86h-332v-276h-102v276h-330v86h330v209h-330v86h285z" />
<glyph unicode="&#xa7;" horiz-adv-x="1073" d="M123 731q0 88 57.5 142.5t149.5 72.5q-100 55 -101 166q0 104 94.5 176t274.5 72q152 0 291 -55v-101q-139 59 -283 60q-115 0 -196.5 -39t-81.5 -123q0 -55 57 -93t219 -79q80 -20 132 -40t110.5 -53.5t87.5 -85t29 -120.5q0 -76 -54.5 -131.5t-146.5 -75.5 q88 -63 88 -170q0 -113 -99.5 -183.5t-287.5 -70.5q-195 0 -336 63v103q135 -70 330 -70q121 0 204.5 50.5t83.5 121.5q0 63 -58 106.5t-216 84.5q-170 43 -259 100t-89 172zM223 731q0 -55 53.5 -92t192.5 -74q164 -43 227 -76q166 29 166 142q0 66 -53 109.5t-199 82.5 q-139 37 -200 60q-84 -8 -135.5 -47t-51.5 -105z" />
<glyph unicode="&#xa8;" horiz-adv-x="720" d="M150 1167v160h110v-160h-110zM453 1167v160h110v-160h-110z" />
<glyph unicode="&#xa9;" horiz-adv-x="1550" d="M96 657.5q0 278.5 198.5 477t479.5 198.5q279 0 477.5 -197.5t198.5 -478.5q0 -279 -197.5 -476t-478 -197t-479.5 197.5t-199 476zM147 657q0 -258 184.5 -441t442.5 -183t441.5 183t183.5 441t-183.5 442.5t-441.5 184.5t-442.5 -184.5t-184.5 -442.5zM428 657 q0 207 96.5 305.5t266.5 98.5q111 0 233 -43v-57q-119 43 -227 43q-310 0 -310 -346.5t312 -346.5q119 0 225 43v-57q-104 -41 -233 -41q-362 0 -363 401z" />
<glyph unicode="&#xaa;" horiz-adv-x="753" d="M135 977q0 53 27.5 91t72 55.5t82 23.5t76.5 6h41q29 0 63.5 -5t37.5 -5q0 174 -183 174q-78 0 -157 -25v56q69 24 159 24q238 0 238 -229v-172q0 -68 -44 -109t-89 -50t-92 -9q-49 0 -95.5 10t-91.5 52t-45 112zM193 977q0 -123 174 -123q168 0 168 119v119l-35 6 q-37 4 -70 4q-238 0 -237 -125z" />
<glyph unicode="&#xab;" horiz-adv-x="1101" d="M74 522l364 393h137l-376 -393l376 -391h-137zM475 522l365 393h135l-375 -393l375 -391h-135z" />
<glyph unicode="&#xac;" horiz-adv-x="1185" d="M178 541v94h836v-305h-94v211h-742z" />
<glyph unicode="&#xad;" horiz-adv-x="948" d="M147 532v99h646v-99h-646z" />
<glyph unicode="&#xae;" horiz-adv-x="1550" d="M96 657.5q0 278.5 198.5 477t479.5 198.5q279 0 477.5 -197.5t198.5 -478.5q0 -279 -197.5 -476t-478 -197t-479.5 197.5t-199 476zM147 657q0 -258 184.5 -441t442.5 -183t441.5 183t183.5 441t-183.5 442.5t-441.5 184.5t-442.5 -184.5t-184.5 -442.5zM528 266v783h287 q125 0 194.5 -57.5t69.5 -166.5q0 -111 -64.5 -165t-140.5 -60l232 -334h-70l-223 326h-225v-326h-60zM588 649h223q207 0 207 172t-207 172h-223v-344z" />
<glyph unicode="&#xaf;" horiz-adv-x="768" d="M158 1192v76h450v-76h-450z" />
<glyph unicode="&#xb0;" horiz-adv-x="759" d="M150 1134.5q0 106.5 60.5 168t166.5 61.5q104 0 165.5 -61.5t61.5 -168t-61.5 -168t-165.5 -61.5q-106 0 -166.5 61.5t-60.5 168zM201 1135q0 -86 46 -132.5t130 -46.5t129 46.5t45 132.5q0 84 -45 130t-129 46t-130 -46t-46 -130z" />
<glyph unicode="&#xb1;" horiz-adv-x="1110" d="M195 45v84h712v-84h-712zM195 571v86h313v312h86v-312h313v-86h-313v-313h-86v313h-313z" />
<glyph unicode="&#xb4;" horiz-adv-x="493" d="M123 1167l160 281h114l-196 -281h-78z" />
<glyph unicode="&#xb5;" horiz-adv-x="1167" d="M174 -410v1403h102v-645q0 -123 65 -192.5t228 -69.5q160 0 314 64v843h102v-903q-197 -104 -426 -104q-115 0 -193.5 41t-89.5 90v-527h-102z" />
<glyph unicode="&#xb6;" horiz-adv-x="868" d="M90 954q0 195 116 295.5t337 100.5h159v-1319h-94v524h-65q-221 0 -337 101.5t-116 297.5z" />
<glyph unicode="&#xb7;" horiz-adv-x="536" d="M213 481v162h111v-162h-111z" />
<glyph unicode="&#xb8;" horiz-adv-x="555" d="M117 -289l200 283h78l-159 -283h-119z" />
<glyph unicode="&#xba;" horiz-adv-x="815" d="M147 1087q0 162 76 225.5t185 63.5q68 0 121 -20.5t95 -89t42 -179.5q0 -160 -75 -222t-183 -62q-260 0 -261 284zM203 1087q0 -231 205 -231q201 0 200 231q0 236 -200 236q-205 0 -205 -236z" />
<glyph unicode="&#xbb;" d="M123 129l373 393l-373 391h135l365 -391l-365 -393h-135zM522 129l375 393l-375 391h137l365 -391l-365 -393h-137z" />
<glyph unicode="&#xbf;" horiz-adv-x="899" d="M125 0q0 88 31.5 149.5t77 100.5t90.5 78t76.5 104.5t31.5 157.5v65h100v-73q0 -102 -31.5 -177t-75.5 -117t-89 -79t-77 -88t-32 -121q0 -115 77 -175.5t206 -60.5q150 0 268 72v-108l-20 -11q-20 -10 -43 -18t-54.5 -17.5t-69.5 -15.5t-77 -6q-57 0 -115.5 13.5 t-125 46t-107.5 105.5t-41 175zM426 831v162h113v-162h-113z" />
<glyph unicode="&#xc0;" horiz-adv-x="1282" d="M51 0l537 1317h100l535 -1317h-109l-168 418h-618l-166 -418h-111zM367 514h542l-272 680zM432 1745h115l160 -283h-78z" />
<glyph unicode="&#xc1;" horiz-adv-x="1282" d="M51 0l537 1317h100l535 -1317h-109l-168 418h-618l-166 -418h-111zM367 514h542l-272 680zM571 1462l160 283h115l-197 -283h-78z" />
<glyph unicode="&#xc2;" horiz-adv-x="1282" d="M51 0l537 1317h100l535 -1317h-109l-168 418h-618l-166 -418h-111zM367 514h542l-272 680zM383 1462l207 283h94l209 -283h-98l-158 221l-160 -221h-94z" />
<glyph unicode="&#xc3;" horiz-adv-x="1282" d="M51 0l537 1317h100l535 -1317h-109l-168 418h-618l-166 -418h-111zM367 514h542l-272 680zM373 1556q68 90 133 91q49 0 140 -53.5t136 -53.5q63 0 123 82q0 -12 1 -37.5t1 -38.5q-66 -94 -129 -94q-49 0 -141 52t-137 52q-70 1 -123 -79z" />
<glyph unicode="&#xc4;" horiz-adv-x="1282" d="M51 0l537 1317h100l535 -1317h-109l-168 418h-618l-166 -418h-111zM367 514h542l-272 680zM430 1462v160h111v-160h-111zM735 1462v160h111v-160h-111z" />
<glyph unicode="&#xc5;" horiz-adv-x="1282" d="M51 0l537 1317h100l535 -1317h-109l-168 418h-618l-166 -418h-111zM367 514h542l-272 680zM467 1616q0 84 44 129t126 45q170 0 170 -174q0 -176 -170 -176q-82 0 -126 45t-44 131zM526 1616q0 -63 27 -92t84 -29q113 0 113 121t-113 121q-111 0 -111 -121z" />
<glyph unicode="&#xc6;" horiz-adv-x="1843" d="M8 0l823 1317h883v-96h-698v-510h614v-99h-614v-516h698v-96h-801v418h-530l-258 -418h-117zM444 518h469v699h-32z" />
<glyph unicode="&#xc7;" horiz-adv-x="1212" d="M125 657q0 348 162 514t446 166q203 0 395 -75v-97q-199 76 -383 76q-520 0 -520 -584q0 -580 520 -579q197 0 383 72v-97q-172 -63 -348 -69l-155 -273h-115l192 271q-270 10 -423.5 173.5t-153.5 501.5z" />
<glyph unicode="&#xc8;" horiz-adv-x="1083" d="M160 0v1317h815v-94h-715v-510h631v-99h-631v-518h715v-96h-815zM371 1745h112l160 -281h-78z" />
<glyph unicode="&#xc9;" horiz-adv-x="1083" d="M160 0v1317h815v-94h-715v-510h631v-99h-631v-518h715v-96h-815zM489 1464l160 281h115l-197 -281h-78z" />
<glyph unicode="&#xca;" horiz-adv-x="1083" d="M158 0v1317h817v-96h-715v-510h631v-97h-631v-520h715v-94h-817zM311 1462l209 283h92l209 -283h-98l-158 221l-159 -221h-95z" />
<glyph unicode="&#xcb;" horiz-adv-x="1083" d="M160 0v1317h815v-94h-715v-510h631v-99h-631v-518h715v-96h-815zM367 1464v160h110v-160h-110zM672 1464v160h110v-160h-110z" />
<glyph unicode="&#xcc;" horiz-adv-x="432" d="M10 1745h115l160 -281h-78zM160 0v1317h100v-1317h-100z" />
<glyph unicode="&#xcd;" horiz-adv-x="432" d="M137 1464l160 281h115l-197 -281h-78zM160 0v1317h100v-1317h-100z" />
<glyph unicode="&#xce;" horiz-adv-x="432" d="M-43 1462l205 283h94l209 -283h-98l-158 221l-160 -221h-92zM158 0v1317h102v-1317h-102z" />
<glyph unicode="&#xcf;" horiz-adv-x="432" d="M2 1464v160h113v-160h-113zM160 0v1317h100v-1317h-100zM307 1464v160h111v-160h-111z" />
<glyph unicode="&#xd0;" horiz-adv-x="1400" d="M98 614v84h160v619h399q623 0 623 -660q0 -657 -623 -657h-399v614h-160zM360 94h291q270 0 399.5 137.5t129.5 426t-128 427t-401 138.5h-291v-525h385v-84h-385v-520z" />
<glyph unicode="&#xd1;" horiz-adv-x="1370" d="M158 0v1317h114l830 -1167v1167h102v-1317h-112l-832 1165v-1165h-102zM420 1556q66 90 133 91q49 0 140 -53.5t136 -53.5q66 0 121 82l4 -76q-68 -94 -131 -94q-49 0 -140 52t-138 52q-66 1 -123 -79q0 14 -1 40.5t-1 38.5z" />
<glyph unicode="&#xd2;" horiz-adv-x="1472" d="M125 659.5q0 677.5 606 677.5q608 0 608 -677.5t-608 -677.5q-606 0 -606 677.5zM225 659q0 -297 122 -439t384 -142t384 142t122 439q0 295 -122 438.5t-384 143.5t-384 -143.5t-122 -438.5zM524 1745h115l160 -281h-78z" />
<glyph unicode="&#xd3;" horiz-adv-x="1472" d="M125 659.5q0 677.5 606 677.5q608 0 608 -677.5t-608 -677.5q-606 0 -606 677.5zM225 659q0 -297 122 -439t384 -142t384 142t122 439q0 295 -122 438.5t-384 143.5t-384 -143.5t-122 -438.5zM653 1464l160 281h117l-199 -281h-78z" />
<glyph unicode="&#xd4;" horiz-adv-x="1472" d="M123 659.5q0 675.5 608 675.5q606 0 606 -675.5t-606 -675.5q-608 0 -608 675.5zM225 659q0 -297 121 -439t385 -142q262 0 384 142t122 439q0 295 -122 437.5t-384 142.5t-384 -142.5t-122 -437.5zM475 1462l207 283h94l209 -283h-98l-158 221l-160 -221h-94z" />
<glyph unicode="&#xd5;" horiz-adv-x="1472" d="M123 659.5q0 675.5 608 675.5q606 0 606 -675.5t-606 -675.5q-608 0 -608 675.5zM225 659q0 -297 121 -439t385 -142q262 0 384 142t122 439q0 295 -122 437.5t-384 142.5t-384 -142.5t-122 -437.5zM461 1556q66 90 133 91q49 0 140 -53.5t136 -53.5q61 0 121 82l4 -76 q-68 -94 -131 -94q-49 0 -140 52t-138 52q-66 1 -123 -79q0 14 -1 40.5t-1 38.5z" />
<glyph unicode="&#xd6;" horiz-adv-x="1472" d="M125 659.5q0 677.5 606 677.5q608 0 608 -677.5t-608 -677.5q-606 0 -606 677.5zM225 659q0 -297 122 -439t384 -142t384 142t122 439q0 295 -122 438.5t-384 143.5t-384 -143.5t-122 -438.5zM524 1464v160h111v-160h-111zM827 1464v160h111v-160h-111z" />
<glyph unicode="&#xd8;" horiz-adv-x="1472" d="M125 659q0 678 606 678q246 0 397 -116l80 96h109l-129 -158q152 -168 151 -500q0 -678 -608 -677q-248 0 -397 114l-78 -96h-111l127 158q-147 162 -147 501zM225 659q0 -285 115 -423l725 909q-121 96 -334 96q-262 0 -384 -143.5t-122 -438.5zM397 172 q121 -94 334 -94q262 0 384 142t122 439q0 283 -115 422z" />
<glyph unicode="&#xd9;" horiz-adv-x="1353" d="M150 518v799h102v-803q0 -440 418 -440q420 0 420 440v803h102v-799q0 -260 -135 -397t-387 -137t-386 137t-134 397zM485 1745h115l160 -283h-78z" />
<glyph unicode="&#xda;" horiz-adv-x="1353" d="M150 518v799h102v-803q0 -440 418 -440q420 0 420 440v803h102v-799q0 -260 -135 -397t-387 -137t-386 137t-134 397zM594 1462l160 283h116l-198 -283h-78z" />
<glyph unicode="&#xdb;" horiz-adv-x="1353" d="M150 518v799h102v-803q0 -440 418 -440q420 0 420 440v803h102v-799q0 -260 -135 -397t-387 -137t-386 137t-134 397zM416 1462l209 283h92l209 -283h-99l-157 221l-160 -221h-94z" />
<glyph unicode="&#xdc;" horiz-adv-x="1353" d="M150 518v799h102v-803q0 -440 418 -440q420 0 420 440v803h102v-799q0 -260 -135 -397t-387 -137t-386 137t-134 397zM463 1462v160h110v-160h-110zM768 1462v160h111v-160h-111z" />
<glyph unicode="&#xde;" d="M158 2v1315h100v-213h293q215 0 331.5 -105.5t116.5 -296t-118.5 -294t-329.5 -103.5h-293v-303h-100zM258 401h281q358 0 358 301q0 304 -358 304h-281v-605z" />
<glyph unicode="&#xdf;" horiz-adv-x="1163" d="M158 0v913q0 215 106.5 341t325.5 126q207 0 305 -100t98 -244q0 -129 -79.5 -215t-147.5 -94q33 -2 79 -22.5t95 -58.5t83 -107.5t34 -155.5q0 -188 -144.5 -285.5t-410.5 -97.5v90q213 0 334.5 75t121.5 222q0 150 -121.5 219.5t-308.5 69.5v90q362 0 363 264 q0 127 -78 191.5t-223 64.5q-330 0 -330 -379v-907h-102z" />
<glyph unicode="&#xe0;" horiz-adv-x="1054" d="M117 295q0 88 42 151.5t97 95t131 50t119 21.5t86 3q129 0 237 -20q0 313 -327 313q-135 0 -283 -45v99q142 47 289 47q424 0 424 -416v-303q0 -78 -31 -135.5t-74 -89t-102 -51t-104.5 -24.5t-90.5 -5q-59 0 -120.5 11t-132 41t-115.5 96.5t-45 160.5zM217 295 q0 -66 31 -111t81 -66.5t99 -30.5t102.5 -9t99.5 8t95 29.5t77.5 67t28.5 108.5v213q-119 18 -251 18q-43 0 -86 -4t-95.5 -18.5t-90.5 -38t-64.5 -66.5t-26.5 -100zM342 1448h115l159 -283h-77z" />
<glyph unicode="&#xe1;" horiz-adv-x="1054" d="M117 295q0 88 42 151.5t97 95t131 50t119 21.5t86 3q129 0 237 -20q0 313 -327 313q-135 0 -283 -45v99q142 47 289 47q424 0 424 -416v-303q0 -78 -31 -135.5t-74 -89t-102 -51t-104.5 -24.5t-90.5 -5q-59 0 -120.5 11t-132 41t-115.5 96.5t-45 160.5zM217 295 q0 -66 31 -111t81 -66.5t99 -30.5t102.5 -9t99.5 8t95 29.5t77.5 67t28.5 108.5v213q-119 18 -251 18q-43 0 -86 -4t-95.5 -18.5t-90.5 -38t-64.5 -66.5t-26.5 -100zM465 1165l160 283h114l-196 -283h-78z" />
<glyph unicode="&#xe2;" horiz-adv-x="1054" d="M117 295q0 88 42 151.5t97 95t131 50t119 21.5t86 3q129 0 237 -20q0 313 -327 313q-135 0 -283 -45v99q142 47 289 47q424 0 424 -416v-303q0 -78 -31 -135.5t-74 -89t-102 -51t-104.5 -24.5t-90.5 -5q-59 0 -120.5 11t-132 41t-115.5 96.5t-45 160.5zM217 295 q0 -66 31 -111t81 -66.5t99 -30.5t102.5 -9t99.5 8t95 29.5t77.5 67t28.5 108.5v213q-119 18 -251 18q-43 0 -86 -4t-95.5 -18.5t-90.5 -38t-64.5 -66.5t-26.5 -100zM279 1165l208 283h95l209 -283h-99l-157 221l-160 -221h-96z" />
<glyph unicode="&#xe3;" horiz-adv-x="1054" d="M117 295q0 88 42 151.5t97 95t131 50t119 21.5t86 3q129 0 237 -20q0 313 -327 313q-135 0 -283 -45v99q142 47 289 47q424 0 424 -416v-303q0 -78 -31 -135.5t-74 -89t-102 -51t-104.5 -24.5t-90.5 -5q-59 0 -120.5 11t-132 41t-115.5 96.5t-45 160.5zM217 295 q0 -66 31 -111t81 -66.5t99 -30.5t102.5 -9t99.5 8t95 29.5t77.5 67t28.5 108.5v213q-119 18 -251 18q-43 0 -86 -4t-95.5 -18.5t-90.5 -38t-64.5 -66.5t-26.5 -100zM270 1247q68 90 133 90q49 0 140.5 -53t136.5 -53q63 0 123 82q0 -27 4 -76q-66 -94 -131 -94 q-49 0 -141.5 52t-137.5 52q-68 0 -123 -80z" />
<glyph unicode="&#xe4;" horiz-adv-x="1054" d="M117 295q0 88 42 151.5t97 95t131 50t119 21.5t86 3q129 0 237 -20q0 313 -327 313q-135 0 -283 -45v99q142 47 289 47q424 0 424 -416v-303q0 -78 -31 -135.5t-74 -89t-102 -51t-104.5 -24.5t-90.5 -5q-59 0 -120.5 11t-132 41t-115.5 96.5t-45 160.5zM217 295 q0 -66 31 -111t81 -66.5t99 -30.5t102.5 -9t99.5 8t95 29.5t77.5 67t28.5 108.5v213q-119 18 -251 18q-43 0 -86 -4t-95.5 -18.5t-90.5 -38t-64.5 -66.5t-26.5 -100zM326 1165v160h110v-160h-110zM631 1165v160h110v-160h-110z" />
<glyph unicode="&#xe5;" horiz-adv-x="1054" d="M117 295q0 88 42 151.5t97 95t131 50t119 21.5t86 3q129 0 237 -20q0 313 -327 313q-135 0 -283 -45v99q142 47 289 47q424 0 424 -416v-303q0 -78 -31 -135.5t-74 -89t-102 -51t-104.5 -24.5t-90.5 -5q-59 0 -120.5 11t-132 41t-115.5 96.5t-45 160.5zM217 295 q0 -66 31 -111t81 -66.5t99 -30.5t102.5 -9t99.5 8t95 29.5t77.5 67t28.5 108.5v213q-119 18 -251 18q-43 0 -86 -4t-95.5 -18.5t-90.5 -38t-64.5 -66.5t-26.5 -100zM358 1321q0 174 170 174q82 0 126 -45t44 -129t-44 -130t-126 -46t-126 46t-44 130zM416 1321 q0 -63 26.5 -92t85.5 -29q111 0 111 121t-111 121q-113 0 -112 -121z" />
<glyph unicode="&#xe6;" horiz-adv-x="1808" d="M115 295q0 80 34.5 140.5t85 93t119 53t123.5 26.5t111 6q121 0 239 -18q0 160 -80.5 236.5t-248.5 76.5q-139 0 -281 -45v99q142 47 287 47q305 0 381 -234q98 233 375 234q100 0 178 -31t122 -83t73.5 -106.5t42 -118t15.5 -96t3 -63.5v-27.5t-1 -21.5t-1 -13.5v-7.5 v-4h-764q12 -188 110.5 -270t288.5 -82q170 0 301 68v-105q-147 -63 -338 -63q-293 0 -393 217q-68 -127 -160 -172t-211 -45q-57 0 -117.5 11t-132 41t-116.5 96.5t-45 160.5zM215 295q0 -66 30.5 -111t81 -66.5t99.5 -30.5t102 -9q51 0 98.5 8t95.5 29.5t76.5 67 t28.5 108.5v213q-121 18 -249 18q-59 0 -113.5 -8t-115 -29.5t-97.5 -70.5t-37 -119zM928 528h661q0 31 -3 65t-22.5 96.5t-52 107.5t-100.5 80.5t-158 35.5q-313 0 -325 -385z" />
<glyph unicode="&#xe7;" horiz-adv-x="946" d="M121 498q0 152 41 258t113.5 159.5t147.5 75t163 21.5q139 0 288 -54v-98q-143 53 -278 53q-180 0 -277.5 -96t-97.5 -319.5t97.5 -319.5t277.5 -96q143 0 278 53v-98q-109 -41 -239 -51l-154 -275h-116l190 273q-434 23 -434 514z" />
<glyph unicode="&#xe8;" d="M125 477q0 57 7 116.5t36 138.5t74 137.5t128.5 99.5t196.5 41q86 0 157 -26t114 -64.5t75.5 -94t47 -101.5t23.5 -101.5t10 -81t1 -49.5v-22.5v-15.5t-1 -8.5t-1 -5.5v-2h-764q2 -51 19 -88q39 -266 356 -266q197 0 324 70v-105q-135 -63 -332 -63q-92 0 -170 22.5 t-148.5 73.5t-111.5 152.5t-41 242.5zM229 528h662q0 27 -3 61t-21.5 95t-51.5 108.5t-98.5 84t-155.5 36.5q-158 0 -240.5 -100t-91.5 -285zM367 1448h114l160 -283h-78z" />
<glyph unicode="&#xe9;" d="M125 477q0 57 7 116.5t36 138.5t74 137.5t128.5 99.5t196.5 41q86 0 157 -26t114 -64.5t75.5 -94t47 -101.5t23.5 -101.5t10 -81t1 -49.5v-22.5v-15.5t-1 -8.5t-1 -5.5v-2h-764q2 -51 19 -88q39 -266 356 -266q197 0 324 70v-105q-135 -63 -332 -63q-92 0 -170 22.5 t-148.5 73.5t-111.5 152.5t-41 242.5zM229 528h662q0 27 -3 61t-21.5 95t-51.5 108.5t-98.5 84t-155.5 36.5q-158 0 -240.5 -100t-91.5 -285zM477 1165l160 283h115l-197 -283h-78z" />
<glyph unicode="&#xea;" d="M125 477q0 57 7 116.5t36 138.5t74 137.5t128.5 99.5t196.5 41q86 0 157 -26t114 -64.5t75.5 -94t47 -101.5t23.5 -101.5t10 -81t1 -49.5v-22.5v-15.5t-1 -8.5t-1 -5.5v-2h-764q2 -51 19 -88q39 -266 356 -266q197 0 324 70v-105q-135 -63 -332 -63q-92 0 -170 22.5 t-148.5 73.5t-111.5 152.5t-41 242.5zM229 528h662q0 27 -3 61t-21.5 95t-51.5 108.5t-98.5 84t-155.5 36.5q-158 0 -240.5 -100t-91.5 -285zM295 1165l209 283h94l209 -283h-98l-158 221l-160 -221h-96z" />
<glyph unicode="&#xeb;" d="M125 477q0 57 7 116.5t36 138.5t74 137.5t128.5 99.5t196.5 41q86 0 157 -26t114 -64.5t75.5 -94t47 -101.5t23.5 -101.5t10 -81t1 -49.5v-22.5v-15.5t-1 -8.5t-1 -5.5v-2h-764q2 -51 19 -88q39 -266 356 -266q197 0 324 70v-105q-135 -63 -332 -63q-92 0 -170 22.5 t-148.5 73.5t-111.5 152.5t-41 242.5zM229 528h662q0 27 -3 61t-21.5 95t-51.5 108.5t-98.5 84t-155.5 36.5q-158 0 -240.5 -100t-91.5 -285zM346 1165v160h111v-160h-111zM651 1165v160h111v-160h-111z" />
<glyph unicode="&#xec;" horiz-adv-x="450" d="M23 1448h114l160 -283h-78zM174 0v993h100v-993h-100z" />
<glyph unicode="&#xed;" horiz-adv-x="450" d="M147 1165l160 283h117l-197 -283h-80zM174 0v993h100v-993h-100z" />
<glyph unicode="&#xee;" horiz-adv-x="450" d="M-29 1165l207 283h94l209 -283h-98l-158 221l-159 -221h-95zM174 0v993h100v-993h-100z" />
<glyph unicode="&#xef;" horiz-adv-x="450" d="M18 1165v160h111v-160h-111zM174 0v993h100v-993h-100zM324 1165v160h110v-160h-110z" />
<glyph unicode="&#xf0;" horiz-adv-x="1153" d="M119 414q0 188 117.5 296.5t320.5 108.5q211 0 340 -110q-16 297 -182 430l-248 -140q-10 20 -39 70l209 115q-100 55 -231 55q-43 0 -87 -6v96q43 6 91 6q197 0 329 -92q37 18 101.5 56t91.5 53q6 -10 12 -21.5t13.5 -25t11.5 -21.5q-39 -22 -162 -92q199 -188 199 -590 q0 -618 -449 -618q-221 0 -329.5 127t-108.5 303zM221 414q0 -39 7.5 -79t30 -88t57 -84t97 -60.5t144.5 -24.5q53 0 96 9t91.5 42t82 87t55 151.5t23.5 228.5q-49 49 -139 89t-209 40q-160 0 -248 -81t-88 -230z" />
<glyph unicode="&#xf1;" horiz-adv-x="1126" d="M152 0v905q203 105 426 105q184 0 284.5 -92.5t100.5 -270.5v-647h-101v647q0 262 -295 262q-160 0 -313 -65v-844h-102zM270 1247q68 90 133 90q51 0 141.5 -53t135.5 -53q63 0 123 82l4 -76q-66 -94 -131 -94q-49 0 -141.5 52t-137.5 52q-64 0 -123 -80q0 27 -4 80z " />
<glyph unicode="&#xf2;" horiz-adv-x="1144" d="M109 497.5q0 151.5 40.5 257t112.5 159t147.5 76t164 22.5t164 -22.5t147 -76t112.5 -159t41 -257t-41 -257t-112.5 -158.5t-147 -75.5t-164 -22.5t-164 22.5t-147.5 75.5t-112.5 158.5t-40.5 257zM208 498q0 -420 365 -420q174 0 269.5 98t95.5 321.5t-95 322t-270 98.5 q-365 0 -365 -420zM387 1448h115l160 -281h-78z" />
<glyph unicode="&#xf3;" horiz-adv-x="1144" d="M109 497.5q0 151.5 40.5 257t112.5 159t147.5 76t164 22.5t164 -22.5t147 -76t112.5 -159t41 -257t-41 -257t-112.5 -158.5t-147 -75.5t-164 -22.5t-164 22.5t-147.5 75.5t-112.5 158.5t-40.5 257zM208 498q0 -420 365 -420q174 0 269.5 98t95.5 321.5t-95 322t-270 98.5 q-365 0 -365 -420zM506 1167l160 281h114l-196 -281h-78z" />
<glyph unicode="&#xf4;" horiz-adv-x="1144" d="M106 496q0 152 42 258t114 159.5t147.5 75t163.5 21.5q70 0 130.5 -12.5t124 -47.5t108.5 -90t73.5 -148.5t28.5 -215.5q0 -121 -28.5 -214.5t-73.5 -148.5t-108.5 -89t-124 -46t-130 -12t-131 12t-125 46t-108.5 89t-74 148.5t-29 214.5zM209 496q-1 -420 364 -420 q362 0 363 420q0 422 -363 422q-365 0 -364 -422zM317 1165l207 283h94l209 -283h-98l-158 221l-159 -221h-95z" />
<glyph unicode="&#xf5;" horiz-adv-x="1144" d="M106 496q0 152 42 258t114 159.5t147.5 75t163.5 21.5q70 0 130.5 -12.5t124 -47.5t108.5 -90t73.5 -148.5t28.5 -215.5q0 -121 -28.5 -214.5t-73.5 -148.5t-108.5 -89t-124 -46t-130 -12t-131 12t-125 46t-108.5 89t-74 148.5t-29 214.5zM209 496q-1 -420 364 -420 q362 0 363 420q0 422 -363 422q-365 0 -364 -422zM303 1247q66 90 133 90q49 0 140.5 -53t136.5 -53q61 0 121 82l4 -76q-66 -94 -131 -94q-49 0 -140.5 52t-138.5 52q-64 0 -123 -80q0 12 -1 39t-1 41z" />
<glyph unicode="&#xf6;" horiz-adv-x="1144" d="M109 497.5q0 151.5 40.5 257t112.5 159t147.5 76t164 22.5t164 -22.5t147 -76t112.5 -159t41 -257t-41 -257t-112.5 -158.5t-147 -75.5t-164 -22.5t-164 22.5t-147.5 75.5t-112.5 158.5t-40.5 257zM208 498q0 -420 365 -420q174 0 269.5 98t95.5 321.5t-95 322t-270 98.5 q-365 0 -365 -420zM365 1167v160h112v-160h-112zM670 1167v160h110v-160h-110z" />
<glyph unicode="&#xf8;" horiz-adv-x="1157" d="M113 500q0 121 28.5 214t73.5 148.5t107.5 90t124 47t131.5 12.5q180 0 294 -86l56 67h110l-104 -127q109 -125 108 -366q0 -152 -40.5 -258.5t-112.5 -159.5t-147.5 -75.5t-163.5 -22.5q-180 0 -295 84l-56 -68h-110l104 129q-109 129 -108 371zM213 500q0 -190 76 -293 l522 645q-88 66 -233 66q-365 0 -365 -418zM344 141q86 -63 234 -63q174 0 269 98.5t95 323.5q0 184 -76 288z" />
<glyph unicode="&#xf9;" horiz-adv-x="1142" d="M152 412v581h102v-587q0 -328 311.5 -328t311.5 328v587h102v-581q0 -205 -108.5 -315.5t-305.5 -110.5q-199 0 -306 110.5t-107 315.5zM373 1448h114l160 -283h-78z" />
<glyph unicode="&#xfa;" horiz-adv-x="1142" d="M152 412v581h102v-587q0 -328 311.5 -328t311.5 328v587h102v-581q0 -205 -108.5 -315.5t-305.5 -110.5q-199 0 -306 110.5t-107 315.5zM475 1165l160 283h115l-197 -283h-78z" />
<glyph unicode="&#xfb;" horiz-adv-x="1142" d="M152 412v581h102v-587q0 -328 311.5 -328t311.5 328v587h102v-581q0 -205 -108.5 -315.5t-305.5 -110.5q-199 0 -306 110.5t-107 315.5zM309 1165l209 283h94l209 -283h-98l-158 221l-159 -221h-97z" />
<glyph unicode="&#xfc;" horiz-adv-x="1142" d="M152 412v581h102v-587q0 -328 311.5 -328t311.5 328v587h102v-581q0 -205 -108.5 -315.5t-305.5 -110.5q-199 0 -306 110.5t-107 315.5zM358 1165v160h111v-160h-111zM662 1165v160h112v-160h-112z" />
<glyph unicode="&#xfe;" horiz-adv-x="1091" d="M154 -375v1743h102v-416q136 49 281 49q88 0 162.5 -21.5t144 -73.5t109.5 -156.5t40 -252t-40 -252t-109.5 -156.5t-144 -73.5t-162.5 -21.5q-145 0 -281 49v-418h-102zM256 143q131 -55 281 -55q174 0 264 94t90 316q0 219 -90 314t-264 95q-154 0 -281 -57v-707z" />
<glyph unicode="&#xff;" horiz-adv-x="987" d="M68 993h110l326 -860l317 860h109l-416 -1112q-102 -272 -303 -272q-47 0 -94 18v94q37 -18 84 -18q45 0 79.5 17.5t60.5 54.5t42 66.5t38.5 82.5t33.5 76zM295 1165v160h113v-160h-113zM600 1165v160h111v-160h-111z" />
<glyph unicode="&#x2c6;" horiz-adv-x="774" d="M135 1165l209 283h94l209 -283h-98l-158 221l-160 -221h-96z" />
<glyph unicode="&#x2dc;" horiz-adv-x="911" d="M180 1247q66 90 131 90q49 0 141.5 -53t137.5 -53q66 0 121 82l4 -76q-66 -94 -131 -94q-49 0 -141.5 52t-137.5 52q-64 0 -123 -80q0 12 -1 39t-1 41z" />
<glyph unicode="&#x2000;" horiz-adv-x="895" />
<glyph unicode="&#x2001;" horiz-adv-x="1790" />
<glyph unicode="&#x2002;" horiz-adv-x="895" />
<glyph unicode="&#x2003;" horiz-adv-x="1790" />
<glyph unicode="&#x2004;" horiz-adv-x="596" />
<glyph unicode="&#x2005;" horiz-adv-x="447" />
<glyph unicode="&#x2006;" horiz-adv-x="298" />
<glyph unicode="&#x2007;" horiz-adv-x="298" />
<glyph unicode="&#x2008;" horiz-adv-x="223" />
<glyph unicode="&#x2009;" horiz-adv-x="358" />
<glyph unicode="&#x200a;" horiz-adv-x="99" />
<glyph unicode="&#x2010;" horiz-adv-x="948" d="M147 532v99h646v-99h-646z" />
<glyph unicode="&#x2011;" horiz-adv-x="948" d="M147 532v99h646v-99h-646z" />
<glyph unicode="&#x2012;" horiz-adv-x="948" d="M147 532v99h646v-99h-646z" />
<glyph unicode="&#x2013;" horiz-adv-x="1210" d="M133 524v88h934v-88h-934z" />
<glyph unicode="&#x2014;" horiz-adv-x="1853" d="M147 524v94h1549v-94h-1549z" />
<glyph unicode="&#x2018;" horiz-adv-x="466" d="M98 1337h115l133 -379h-100z" />
<glyph unicode="&#x2019;" horiz-adv-x="464" d="M98 958l133 379h115l-145 -379h-103z" />
<glyph unicode="&#x201a;" horiz-adv-x="522" d="M133 -209l133 377h113l-146 -377h-100z" />
<glyph unicode="&#x201c;" horiz-adv-x="731" d="M98 1335h115l133 -377h-102zM367 1335h114l133 -377h-100z" />
<glyph unicode="&#x201d;" horiz-adv-x="722" d="M98 958l133 379h115l-145 -379h-103zM369 958l133 379h114l-147 -379h-100z" />
<glyph unicode="&#x201e;" horiz-adv-x="788" d="M133 -209l133 377h113l-146 -377h-100zM401 -209l134 377h114l-145 -377h-103z" />
<glyph unicode="&#x2022;" horiz-adv-x="778" d="M193 682q0 84 58 142.5t142 58.5t142.5 -58.5t58.5 -142.5t-59.5 -142.5t-141.5 -58.5t-141 58.5t-59 142.5z" />
<glyph unicode="&#x2026;" horiz-adv-x="1378" d="M201 0v162h112v-162h-112zM637 0v162h111v-162h-111zM1073 0v162h111v-162h-111z" />
<glyph unicode="&#x202f;" horiz-adv-x="358" />
<glyph unicode="&#x2039;" horiz-adv-x="684" d="M74 522l364 393h137l-376 -393l376 -391h-137z" />
<glyph unicode="&#x203a;" horiz-adv-x="704" d="M117 131l375 391l-375 393h135l364 -393l-364 -391h-135z" />
<glyph unicode="&#x205f;" horiz-adv-x="447" />
<glyph unicode="&#x20ac;" horiz-adv-x="1318" d="M82 461v86h141q-6 51 -6 110q0 63 6 115h-141v86h151q43 244 199 361.5t395 117.5q197 0 394 -75v-97q-199 76 -383 76q-426 0 -502 -383h647v-86h-659q-6 -53 -7 -115q0 -12 7 -110h659v-86h-647q76 -383 504 -383q195 0 381 72v-97q-199 -72 -394 -71 q-242 0 -397.5 116.5t-196.5 362.5h-151z" />
<glyph unicode="&#x2122;" horiz-adv-x="1480" d="M86 1266v51h545v-51h-246v-609h-51v609h-248zM729 657v660h55l246 -350l244 350h57v-660h-53v574l-248 -350l-250 350v-574h-51z" />
<glyph unicode="&#xe000;" horiz-adv-x="993" d="M0 0v993h993v-993h-993z" />
</font>
</defs>
</svg>
